<svg width="100%" height="100%" xmlns="http://www.w3.org/2000/svg" xmlns:xlink="http://www.w3.org/1999/xlink">
  <style>
    .short { visibility: visible; }
    .default { visibility: hidden; }

    @media screen and (min-width: 158px) {
      .short { visibility: hidden; }
      .default { visibility: visible; }
    }
  </style>
  <symbol id="default" viewBox="0 0 157.266 36">
    <path fill="#2c2f36" d="M35.074 15.677l-4.18-.945a1.062 1.062 0 0 1-.782-.71c-.205-.63-.46-1.242-.762-1.831a1.068 1.068 0 0 1 .043-1.05l2.286-3.62a1.057 1.057 0 0 0-.082-1.276 18.193 18.193 0 0 0-1.903-1.9 1.052 1.052 0 0 0-1.255-.099L24.817 6.53a1.063 1.063 0 0 1-1.05.043c-.59-.3-1.201-.554-1.83-.761a1.058 1.058 0 0 1-.71-.78l-.97-4.166a1.05 1.05 0 0 0-.953-.816 17.916 17.916 0 0 0-2.668 0c-.463.033-.85.364-.954.816l-.945 4.177c-.081.368-.352.666-.711.78-.63.207-1.242.462-1.833.762a1.064 1.064 0 0 1-1.05-.043L7.52 4.258a1.052 1.052 0 0 0-1.254.098 18.18 18.18 0 0 0-1.922 1.89c-.304.351-.342.86-.094 1.252l2.285 3.62c.198.318.214.716.043 1.05-.3.59-.555 1.202-.761 1.83a1.063 1.063 0 0 1-.782.711l-4.169.96a1.058 1.058 0 0 0-.816.957 18.87 18.87 0 0 0 0 2.732c.032.463.364.85.816.953l4.18.945c.368.083.665.353.782.71.203.634.453 1.251.75 1.847.17.332.154.729-.043 1.046L4.25 28.48c-.248.392-.21.9.094 1.252a18.59 18.59 0 0 0 1.906 1.917c.352.304.86.344 1.254.098l3.622-2.288a1.071 1.071 0 0 1 1.052-.043c.41.21.83.398 1.262.562a.587.587 0 0 0 .75-.78 10.587 10.587 0 0 0-1.34-2.37c-.293-.41-.489-.664-.672-.906l-.106-.144a25.52 25.52 0 0 1-1.102-1.492 14.798 14.798 0 0 1-1.059-1.776 10.116 10.116 0 0 1-1.066-4.942 9.142 9.142 0 0 1 10.01-8.71 9.142 9.142 0 0 1 8.24 8.71 10.17 10.17 0 0 1-1.078 4.958c-.312.616-.668 1.21-1.063 1.776-.34.48-.73.991-1.098 1.491l-.105.145c-.188.242-.39.495-.676.905a10.419 10.419 0 0 0-1.336 2.37.585.585 0 0 0 .75.78c.43-.164.851-.35 1.262-.557.331-.174.73-.159 1.047.039l3.626 2.287c.392.247.9.207 1.25-.097a18.22 18.22 0 0 0 1.923-1.921c.304-.351.343-.86.097-1.253l-2.29-3.62a1.054 1.054 0 0 1-.039-1.045c.301-.591.555-1.205.758-1.835a1.07 1.07 0 0 1 .782-.71l4.177-.946a1.05 1.05 0 0 0 .809-.968c.07-.91.07-1.823 0-2.732a1.054 1.054 0 0 0-.817-.957z"/><path fill="#2c2f36" d="M20.578 30.45a38.703 38.703 0 0 1-5.212 0 .559.559 0 0 0-.59.663l.988 4.36c.05.242.252.421.497.442 1.138.113 2.284.113 3.422 0a.55.55 0 0 0 .497-.433l.988-4.369a.558.558 0 0 0-.59-.663zM55.844 7.054L49.163 24.58h3.642l1.296-3.536h7.754l1.319 3.536h3.732L60.202 7.054h-4.358zm-.491 10.631l2.637-7.117 2.636 7.117h-5.273zM75.643 12.403c-1.587 0-2.816.56-3.643 1.701h-.044v-1.477h-3.464v17.86h3.486v-7.229h.045c.849 1.03 2.033 1.545 3.53 1.545 1.676 0 3.04-.627 4.135-1.88 1.095-1.276 1.63-2.709 1.63-4.342 0-1.612-.535-3.044-1.586-4.298-1.05-1.253-2.413-1.88-4.09-1.88zm1.296 8.394c-.559.559-1.274.85-2.1.85s-1.542-.291-2.101-.85c-.559-.583-.85-1.321-.85-2.216 0-.873.291-1.612.85-2.171.559-.56 1.251-.85 2.078-.85s1.542.29 2.1.85c.582.56.872 1.298.872 2.17 0 .896-.29 1.634-.849 2.217zM90.962 12.403c-1.586 0-2.815.56-3.642 1.701h-.045v-1.477h-3.464v17.86h3.486v-7.229h.045c.85 1.03 2.034 1.545 3.53 1.545 1.677 0 3.04-.627 4.135-1.88 1.095-1.276 1.631-2.709 1.631-4.342 0-1.612-.536-3.044-1.586-4.298-1.05-1.253-2.414-1.88-4.09-1.88zm1.296 8.394c-.558.559-1.273.85-2.1.85-.827 0-1.542-.291-2.1-.85-.56-.583-.85-1.321-.85-2.216 0-.873.29-1.612.85-2.171.558-.56 1.25-.85 2.077-.85s1.542.29 2.101.85c.581.56.871 1.298.871 2.17 0 .896-.29 1.634-.849 2.217zM107.533 21.311c-1.542 0-2.793-.537-3.799-1.589-1.005-1.074-1.497-2.395-1.497-3.939 0-1.522.514-2.82 1.52-3.872 1.005-1.052 2.279-1.59 3.776-1.59 2.168 0 3.911 1.21 4.648 3.157l3.307-1.522c-.581-1.59-1.609-2.865-3.084-3.783-1.452-.917-3.083-1.387-4.849-1.387-2.525 0-4.67.872-6.435 2.64-1.766 1.746-2.637 3.873-2.637 6.402 0 2.551.871 4.7 2.592 6.423 1.721 1.724 3.866 2.574 6.413 2.574 1.766 0 3.419-.47 4.916-1.387 1.52-.94 2.57-2.216 3.151-3.828l-3.329-1.544c-.782 1.947-2.548 3.245-4.693 3.245zM121.21 14.462h-.023v-1.835h-3.463V24.58h3.486V19.52c0-2.149.983-3.559 3.24-3.559.29 0 .558.022.827.067v-3.447c-.179-.067-.403-.09-.693-.09-1.587 0-2.86.874-3.374 1.97zM131.96 12.359c-2.614 0-4.447.94-5.475 2.842l2.659 1.59c.604-1.075 1.475-1.612 2.66-1.612 1.251 0 1.921.649 1.921 1.477 0 .582-.313.873-.938.873h-1.185c-1.34 0-2.458.201-3.553.716-1.072.515-1.765 1.544-1.765 2.954v.045c0 1.074.38 1.947 1.162 2.596.782.65 1.743.963 2.86.963 1.587 0 2.771-.582 3.576-1.724l.044.023v1.477h3.218V17.17c0-3.134-2.033-4.812-5.184-4.812zm1.743 7.587c0 1.32-.894 2.305-2.391 2.305-.894 0-1.52-.403-1.52-1.208 0-.896.805-1.366 1.81-1.366h2.101v.269zM141.253 11.441v1.186h-2.146v2.977h2.146v8.975h3.486v-8.975h3.106v-2.977h-3.129v-1.253c0-1.366.782-2.104 2.123-2.104.425 0 .782.045 1.073.134V6.54a5.534 5.534 0 0 0-1.632-.246c-3.374 0-5.027 2.037-5.027 5.148zM157.266 15.649v-3.022h-2.95V8.89h-3.441v3.738h-2.19v3.022h2.145v4.588c0 2.798 1.631 4.499 4.737 4.499.581 0 1.118-.068 1.632-.224v-2.887a3.06 3.06 0 0 1-.805.09c-1.363 0-2.078-.538-2.078-1.903v-4.163h2.95z"/>
  </symbol>
  <symbol id="short" viewBox="0 0 24 24">
    <path fill="#2c2f36" d="M23.965 12.91c.047-.606.047-1.215 0-1.82a.703.703 0 0 0-.545-.639l-2.792-.63a.71.71 0 0 1-.522-.473 8.321 8.321 0 0 0-.508-1.22.712.712 0 0 1 .028-.7l1.526-2.413a.704.704 0 0 0-.054-.851 12.124 12.124 0 0 0-1.27-1.268.703.703 0 0 0-.838-.065L16.57 4.354a.711.711 0 0 1-.702.028c-.393-.2-.801-.37-1.22-.507a.706.706 0 0 1-.475-.52L13.527.576a.701.701 0 0 0-.637-.544 11.978 11.978 0 0 0-1.782 0 .704.704 0 0 0-.636.544L9.84 3.362a.706.706 0 0 1-.475.52c-.42.138-.83.308-1.223.508a.711.711 0 0 1-.702-.029L5.02 2.84a.703.703 0 0 0-.837.065c-.459.387-.888.809-1.284 1.26a.704.704 0 0 0-.062.835l1.526 2.413a.712.712 0 0 1 .029.7c-.201.393-.371.801-.51 1.22a.709.709 0 0 1-.52.474l-2.785.64a.706.706 0 0 0-.545.638 12.56 12.56 0 0 0 0 1.822.703.703 0 0 0 .545.635l2.792.63a.714.714 0 0 1 .522.473c.135.423.302.834.5 1.231a.709.709 0 0 1-.028.698l-1.526 2.412c-.165.262-.14.601.062.836.393.456.819.883 1.273 1.278.235.202.575.229.838.065l2.418-1.525a.716.716 0 0 1 .702-.029c.274.14.555.265.843.375a.392.392 0 0 0 .5-.52 7.056 7.056 0 0 0-.894-1.58c-.196-.274-.326-.443-.449-.604l-.07-.097c-.261-.333-.522-.674-.736-.994a9.858 9.858 0 0 1-.707-1.184 6.735 6.735 0 0 1-.712-3.295 6.1 6.1 0 0 1 12.186 0 6.772 6.772 0 0 1-.72 3.305c-.209.411-.446.807-.71 1.185-.227.32-.487.66-.733.994l-.07.096c-.125.161-.26.33-.451.604a6.94 6.94 0 0 0-.893 1.58.39.39 0 0 0 .501.52c.287-.11.569-.234.843-.372a.706.706 0 0 1 .7.026l2.42 1.525a.703.703 0 0 0 .835-.065c.46-.394.888-.822 1.284-1.28a.704.704 0 0 0 .065-.836l-1.529-2.412a.701.701 0 0 1-.026-.698c.2-.394.37-.803.506-1.223a.714.714 0 0 1 .522-.474l2.789-.63a.7.7 0 0 0 .54-.645z"/><path fill="#2c2f36" d="M9.866 20.742l.66 2.907a.37.37 0 0 0 .332.294c.76.076 1.525.076 2.285 0a.368.368 0 0 0 .331-.289l.66-2.912a.372.372 0 0 0-.393-.442 25.878 25.878 0 0 1-3.48 0 .374.374 0 0 0-.395.442z"/>
  </symbol>

  <use class="default" xlink:href="#default" />
  <use class="short" xlink:href="#short" />
</svg>
